<?xml version="1.0" encoding="UTF-8" standalone="no"?>
<svg
   xmlns:dc="http://purl.org/dc/elements/1.1/"
   xmlns:cc="http://creativecommons.org/ns#"
   xmlns:rdf="http://www.w3.org/1999/02/22-rdf-syntax-ns#"
   xmlns:svg="http://www.w3.org/2000/svg"
   xmlns="http://www.w3.org/2000/svg"
   id="svg8"
   version="1.1"
   viewBox="0 0 128 128"
   height="128"
   width="128">
  <defs
     id="defs2" />
  <metadata
     id="metadata5">
    <rdf:RDF>
      <cc:Work
         rdf:about="">
        <dc:format>image/svg+xml</dc:format>
        <dc:type
           rdf:resource="http://purl.org/dc/dcmitype/StillImage" />
        <dc:title></dc:title>
      </cc:Work>
    </rdf:RDF>
  </metadata>
  <g
     id="layer1">
    <path
       id="path23"
       d="m 25,12 8,-8 h 69 V 21 L 56,89 h 50 v 17 l -7,7 H 23 V 96 L 71,26 H 25 Z"
       style="fill:#000000;stroke:none;stroke-width:1px;stroke-linecap:butt;stroke-linejoin:miter;stroke-opacity:1" />
    <path
       id="path27"
       d="M 35,8 H 99 V 20 L 50,92 h 53 v 13 H 33 V 92 L 83,18 H 35 Z"
       style="fill:#217821;stroke:none;stroke-width:1px;stroke-linecap:butt;stroke-linejoin:miter;stroke-opacity:1" />
    <g
       id="g898">
      <path
         style="fill:none;stroke:#2ca02c;stroke-width:2;stroke-linecap:butt;stroke-linejoin:miter;stroke-miterlimit:4;stroke-dasharray:none;stroke-opacity:1"
         d="M 36,18 V 9 h 63"
         id="path48" />
      <path
         style="fill:none;stroke:#2ca02c;stroke-width:2;stroke-linecap:butt;stroke-linejoin:miter;stroke-miterlimit:4;stroke-dasharray:none;stroke-opacity:1"
         d="M 84,18 34,92 v 13"
         id="path858" />
      <path
         style="fill:none;stroke:#2ca02c;stroke-width:2;stroke-linecap:butt;stroke-linejoin:miter;stroke-miterlimit:4;stroke-dasharray:none;stroke-opacity:1"
         d="m 50,93 h 52 v 12"
         id="path860" />
    </g>
    <g
       id="g913">
      <path
         style="fill:#000000;stroke:none;stroke-width:1px;stroke-linecap:butt;stroke-linejoin:miter;stroke-opacity:1"
         d="m 41,39.99824 c 0,0 4,14 0,14 -4,0 0,-14 0,-14 z"
         id="path953" />
      <path
         style="fill:#000000;stroke:none;stroke-width:1px;stroke-linecap:butt;stroke-linejoin:miter;stroke-opacity:1"
         d="M 77,46.9982 C 76.98595,45.3814 76.56236,43.4065 77.625157,42.188 78.61852,41.0491 80.985944,42.119 82,40.9982 c 0.695004,-0.768 -2.24e-4,-2.165 0.513055,-3.0646 0.752909,-1.3197 2.853293,-1.5545 3.486945,-2.9354 0.897665,-1.9562 -1.281973,-4.6788 -0.06879,-6.4567 0.817607,-1.1982 2.851293,-0.7548 4.068792,-1.5433 1.257538,-0.8145 1.730736,-2.7788 3.173393,-3.1831 1.595033,-0.4471 4.115637,-0.3131 4.826607,1.1831 1.118807,2.3544 -2.384346,4.6448 -3.353502,7.0646 -0.930921,2.3244 -0.82702,5.1487 -2.353503,7.1335 -1.041772,1.3545 -3.483574,1.2969 -4.292995,2.8019 -0.598236,1.1123 0.537543,2.6362 0.02134,3.7889 -1.006383,2.2473 -4.391367,2.7091 -5.538539,4.8879 -3.179622,6.0388 4.341598,20.3954 -2.482802,20.3232 C 76.114046,70.9572 79.310077,63.255 78.831284,59.3984 78.316507,55.252 77.036311,51.1763 77,46.9982 Z"
         id="path29" />
      <path
         style="fill:#000000;stroke:none;stroke-width:1px;stroke-linecap:butt;stroke-linejoin:miter;stroke-opacity:1"
         d="m 56,52.9982 c -1.309807,-8.4364 8.204312,-23.4808 16,-20 7.405653,3.3067 -6.050844,16.1532 -4,24 0.673218,2.5758 4.810333,3.5728 5,6.2283 0.269551,3.7741 -4.619659,6.169 -5.775797,9.7717 -1.431389,4.4604 3.459171,13.8985 -1.224203,14 -4.369505,0.095 -1.52467,-8.6333 -1.707005,-13 -0.208827,-5.0012 2.964339,-10.5323 0.707005,-15 -1.625981,-3.2181 -8.446843,-2.4371 -9,-6 z"
         id="path31" />
      <path
         style="fill:#000000;stroke:none;stroke-width:1px;stroke-linecap:butt;stroke-linejoin:miter;stroke-opacity:1"
         d="m 34,12.3517 c 2.783839,-0.3059 4.204645,4.4753 7,4.6465 2.231885,0.1367 3.766067,-2.9023 6,-3 2.308912,-0.101 4.152621,2.8132 6.448406,2.5475 2.640738,-0.3058 4.110627,-5.6004 6.551594,-4.5475 4.436007,1.9135 4.795845,10.2831 2.159553,14.3315 -1.484171,2.2792 -5.983728,0.1926 -7.8707,2.1513 -1.310279,1.3601 0.594346,5.3747 -1.288853,5.5172 -1.78994,0.1354 -0.214491,-5.1849 -2,-5 -3.703188,0.3834 1.775082,10.6945 -1.93535,11 -4.907869,0.4041 0.01937,-13.9318 -4.905097,-13.9354 -3.15917,0 -0.0021,8.8327 -3.159553,8.9354 -2.53725,0.082 -0.465436,-7.1429 -3,-7 -2.275493,0.1283 0.303682,6.3866 -1.969746,6.5475 C 33.631355,34.7153 35.381227,27.6616 33,27.9982 c -4.341171,0.6136 2.380368,12.814 -2,13 -4.111842,0.1746 1.076108,-10.9571 -2.905097,-12 -1.080276,-0.283 -1.250387,2.8755 -2.283474,2.4514 C 22.444666,30.0677 24.719752,23.8918 26.128514,20.5362 27.593717,17.0461 30.237495,12.7651 34,12.3517 Z"
         id="path33" />
      <path
         style="fill:#000000;stroke:none;stroke-width:1px;stroke-linecap:butt;stroke-linejoin:miter;stroke-opacity:1"
         d="M 50.292995,63.0285 C 54.982325,65.0568 46.446399,72.9191 47,77.9982 c 0.171909,1.5772 2.036812,2.733 2,4.3191 -0.05417,2.3342 -2.063153,4.1931 -3.234899,6.2126 -1.433906,2.4713 -1.969775,8.2372 -4.635801,7.2097 C 36.226219,93.85 47.379145,83.9465 43.707005,80.188 42.364239,78.8137 39.013983,82.6303 38,80.9982 34.170058,74.8337 43.632023,60.1472 50.292995,63.0285 Z"
         id="path35" />
      <path
         style="fill:#000000;stroke:none;stroke-width:1px;stroke-linecap:butt;stroke-linejoin:miter;stroke-opacity:1"
         d="M 71.610946,10.6579 C 73.746744,15.0078 69.188816,24.4185 74,24.9982 c 5.040728,0.6073 0.935479,-14.3583 6,-14 4.821603,0.3411 -1.054506,13.9293 3.778634,14 4.873673,0.071 -0.59985,-13.2833 4.221366,-14 2.377575,-0.3534 1.643985,6.4764 4,6 2.210966,-0.4471 0.533681,-4.5149 1.271119,-6.6467 0.66093,-1.9106 3.868644,-3.6808 2.785245,-5.3877 C 93.721533,1.2853 87.35043,5.3492 82.994743,5.4532 77.643544,5.581 69.053237,0.7018 66.937422,5.6186 c -0.905567,2.1044 3.663815,2.9828 4.673524,5.0393 z"
         id="path37" />
      <path
         style="fill:#000000;stroke:none;stroke-width:1px;stroke-linecap:butt;stroke-linejoin:miter;stroke-opacity:1"
         d="m 33,89.9982 c 3.447992,-1.0827 3.445145,6.554 6.197707,8.8958 3.105348,2.642 6.951062,5.1751 11.026496,5.294 2.800353,0.082 4.977584,-3.0532 7.775797,-3.1898 2.085761,-0.1018 3.945189,2.1741 6,1.8019 2.060239,-0.3732 4.988557,-1.7082 5,-3.8019 0.02077,-3.8005 -10.053903,-3.3485 -9,-7 0.973313,-3.3723 6.972117,-0.8774 10.478237,-1.0416 2.50455,-0.1172 6.256221,-2.1229 7.521763,0.042 1.732221,2.9626 -5.908149,5.6905 -5,9 1.225414,4.4657 7.393429,7.4732 12,7 4.461064,-0.4583 9.036468,-4.6202 10,-9 0.545432,-2.4793 -4.117346,-4.7205 -3,-7 0.91608,-1.8689 4.211293,-2.5596 6.043008,-1.5713 5.442852,2.9366 6.812752,11.4463 5.956992,17.5713 -0.37792,2.705 -3.67595,4.1927 -4.65683,6.7417 -1.238533,3.2185 2.094,9.9775 -1.34317,10.2583 -4.186882,0.342 -0.02155,-9.9347 -3.642355,-12.0646 -1.566083,-0.9213 -4.061019,-0.1457 -5.326397,1.1582 -2.575383,2.6537 1.630687,10.3913 -2.031248,10.9064 -4.428532,0.623 -1.532903,-11.7878 -6,-12 -3.141117,-0.1492 -1.858883,8.1492 -5,8 -2.978065,-0.1415 -1.024337,-7.8147 -4,-8 -2.399056,-0.1494 -1.597724,6.0827 -4,6 -2.685827,-0.093 -1.332043,-7.3228 -4,-7 -4.818258,0.5831 0.850865,13.843 -4,14 -4.952762,0.1603 -0.06131,-13.5939 -5,-14 -3.420335,-0.2812 -1.597555,9.4485 -5,9 -2.725164,-0.3592 0.745036,-7.8574 -2,-8 -3.896314,-0.2024 -0.100035,11.1118 -4,11 -3.478673,-0.1 0.04196,-8.3096 -3,-10 -3.516069,-1.9539 -7.861449,4.5212 -11.646498,3.1596 -2.365849,-0.851 -4.059055,-3.6627 -4.353502,-6.1596 -0.840885,-7.1308 1.011858,-18.3503 8,-20 0,0 -1.27e-4,-4e-4 0,-4e-4 z"
         id="path39" />
    </g>
  </g>
</svg>
