<svg xmlns="http://www.w3.org/2000/svg" height="128" width="128">
  <path d="M25 12l8-8h69v17L56 89h50v17l-7 7H23V96l48-70H25z"/>
  <path d="M35 8h64v12L50 92h53v13H33V92l50-74H35z" fill="#217821"/>
  <g fill="none" stroke="#2ca02c" stroke-width="2">
    <path d="M36 18V9h63M84 18L34 92v13M50 93h52v12"/>
  </g>
  <path d="M41 39.998s4 14 0 14 0-14 0-14zM77 46.998c-.014-1.617-.438-3.591.625-4.81.994-1.139 3.36-.069 4.375-1.19.695-.768 0-2.165.513-3.064.753-1.32 2.853-1.555 3.487-2.936.898-1.956-1.282-4.679-.069-6.457.818-1.198 2.852-.754 4.069-1.543 1.258-.814 1.73-2.779 3.173-3.183 1.595-.447 4.116-.313 4.827 1.183 1.119 2.355-2.384 4.645-3.354 7.065-.93 2.324-.827 5.149-2.353 7.133-1.042 1.355-3.484 1.297-4.293 2.802-.598 1.112.538 2.636.021 3.79-1.006 2.246-4.391 2.708-5.538 4.887-3.18 6.039 4.341 20.395-2.483 20.323-3.886-.04-.69-7.743-1.169-11.6-.514-4.146-1.795-8.222-1.831-12.4zM56 52.998c-1.31-8.436 8.204-23.48 16-20 7.406 3.307-6.05 16.153-4 24 .673 2.576 4.81 3.573 5 6.228.27 3.775-4.62 6.17-5.776 9.772-1.431 4.46 3.46 13.899-1.224 14-4.37.095-1.525-8.633-1.707-13-.209-5.001 2.964-10.532.707-15-1.626-3.218-8.447-2.437-9-6z"/>
  <path d="M34 12.352c2.784-.306 4.205 4.475 7 4.646 2.232.137 3.766-2.902 6-3 2.309-.1 4.153 2.813 6.448 2.548 2.641-.306 4.111-5.6 6.552-4.548 4.436 1.914 4.796 10.283 2.16 14.332-1.485 2.279-5.984.192-7.871 2.151-1.31 1.36.594 5.375-1.289 5.517-1.79.136-.214-5.185-2-5-3.703.384 1.775 10.695-1.935 11-4.908.404.019-13.932-4.905-13.935-3.16 0-.003 8.832-3.16 8.935-2.537.082-.465-7.143-3-7-2.275.128.304 6.387-1.97 6.548-2.399.17-.649-6.884-3.03-6.548-4.341.614 2.38 12.814-2 13-4.112.175 1.076-10.957-2.905-12-1.08-.283-1.25 2.876-2.284 2.452-3.366-1.382-1.091-7.558.318-10.914 1.465-3.49 4.108-7.77 7.871-8.184zM50.293 63.029c4.69 2.028-3.847 9.89-3.293 14.97.172 1.576 2.037 2.732 2 4.318-.054 2.335-2.063 4.193-3.235 6.213-1.434 2.471-1.97 8.237-4.636 7.21-4.903-1.89 6.25-11.793 2.578-15.552-1.343-1.374-4.693 2.442-5.707.81-3.83-6.164 5.632-20.85 12.293-17.97zM71.61 10.658c2.137 4.35-2.421 13.76 2.39 14.34 5.04.607.935-14.358 6-14 4.822.341-1.055 13.93 3.779 14 4.873.071-.6-13.283 4.221-14 2.378-.353 1.644 6.477 4 6 2.211-.447.534-4.515 1.271-6.647.661-1.91 3.869-3.68 2.785-5.387-2.334-3.679-8.706.385-13.061.49-5.351.127-13.942-4.752-16.058.165-.905 2.104 3.664 2.982 4.674 5.039z"/>
  <path d="M33 89.998c3.448-1.083 3.445 6.554 6.198 8.896 3.105 2.642 6.95 5.175 11.026 5.294 2.8.082 4.978-3.053 7.776-3.19 2.086-.102 3.945 2.174 6 1.802 2.06-.373 4.989-1.708 5-3.802.02-3.8-10.054-3.348-9-7 .973-3.372 6.972-.877 10.478-1.041 2.505-.118 6.256-2.123 7.522.042 1.732 2.962-5.908 5.69-5 9 1.225 4.465 7.393 7.473 12 7 4.461-.459 9.036-4.62 10-9 .545-2.48-4.117-4.72-3-7 .916-1.87 4.211-2.56 6.043-1.572 5.443 2.937 6.813 11.447 5.957 17.572-.378 2.705-3.676 4.192-4.657 6.741-1.238 3.219 2.094 9.978-1.343 10.259-4.187.342-.022-9.935-3.642-12.065-1.566-.921-4.061-.146-5.327 1.158-2.575 2.654 1.63 10.391-2.031 10.907-4.429.623-1.533-11.788-6-12-3.141-.15-1.859 8.149-5 8-2.978-.142-1.024-7.815-4-8-2.4-.15-1.598 6.082-4 6-2.686-.093-1.332-7.323-4-7-4.818.583.85 13.843-4 14-4.953.16-.061-13.594-5-14-3.42-.282-1.598 9.448-5 9-2.725-.36.745-7.858-2-8-3.896-.203-.1 11.111-4 11-3.479-.1.042-8.31-3-10-3.516-1.954-7.861 4.52-11.646 3.16-2.366-.852-4.06-3.664-4.354-6.16-.84-7.131 1.012-18.35 8-20z"/>
</svg>
