<?xml version="1.0" encoding="UTF-8"?>
<svg id="svg8" width="136" height="136" version="1.1" viewBox="0 0 136 136" xmlns="http://www.w3.org/2000/svg">
  <g id="layer1">
    <rect id="rect1598" x="4" y="4" width="128" height="128" rx="0" ry="0" fill="#6d6d6d" stop-color="#000000" stroke-width="0"/>
    <g fill="#fff" stroke-width="0">
      <rect id="rect1600" x="44" y="12" width="80" height="16" stop-color="#000000"/>
      <rect id="rect1600-6" x="12" y="12" width="16" height="16" stop-color="#000000"/>
      <rect id="rect1600-2" transform="rotate(90)" x="44" y="-28" width="80" height="16" stop-color="#000000"/>
      <path id="rect1600-9" d="m44 44v80h80v-80h-48zm16 16h16v16h-16zm32 0h16v16h-16zm-32 32h16v16h-16zm32 0h16v16h-16z" stop-color="#000000"/>
    </g>
    <g fill="none" stroke="#000" stroke-linejoin="round" stroke-width=".25">
      <rect id="rect1736" x="4" y="4" width="32" height="32" stop-color="#000000"/>
      <rect id="rect1736-3" x="36" y="4" width="32" height="32" stop-color="#000000"/>
      <rect id="rect1736-3-7" x="68" y="4" width="32" height="32" stop-color="#000000"/>
      <rect id="rect1736-3-9" x="100" y="4" width="32" height="32" stop-color="#000000"/>
      <rect id="rect1736-0" x="4" y="36" width="32" height="32" stop-color="#000000"/>
      <rect id="rect1736-3-3" x="36" y="36" width="32" height="32" stop-color="#000000"/>
      <rect id="rect1736-3-7-3" x="68" y="36" width="32" height="32" stop-color="#000000"/>
      <rect id="rect1736-3-9-4" x="100" y="36" width="32" height="32" stop-color="#000000"/>
      <rect id="rect1736-7" x="4" y="68" width="32" height="32" stop-color="#000000"/>
      <rect id="rect1736-3-39" x="36" y="68" width="32" height="32" stop-color="#000000"/>
      <rect id="rect1736-3-7-5" x="68" y="68" width="32" height="32" stop-color="#000000"/>
      <rect id="rect1736-3-9-0" x="100" y="68" width="32" height="32" stop-color="#000000"/>
      <rect id="rect1736-1" x="4" y="100" width="32" height="32" stop-color="#000000"/>
      <rect id="rect1736-3-91" x="36" y="100" width="32" height="32" stop-color="#000000"/>
      <rect id="rect1736-3-7-6" x="68" y="100" width="32" height="32" stop-color="#000000"/>
      <rect id="rect1736-3-9-1" x="100" y="100" width="32" height="32" stop-color="#000000"/>
    </g>
  </g>
</svg>
