<?xml version="1.0" encoding="UTF-8"?>
<svg id="svg8" width="200" height="264" version="1.1" viewBox="0 0 200 264" xmlns="http://www.w3.org/2000/svg">
  <rect id="rect870" width="200" height="264" fill="#e5e5e5" stop-color="#000000" stroke-width="0"/>
  <path id="rect1337" d="m4 4h192v64l-64 2.1e-5v192h-128z" fill="#fff" stop-color="#000000" style="font-variation-settings:normal"/>
  <rect id="rect1027" x="28" y="4" width="16" height="64" fill="#828282" stop-color="#000000"/>
  <rect id="rect1027-9" transform="rotate(90)" x="28" y="-132" width="16" height="64" fill="#828282" stop-color="#000000"/>
  <path id="rect1049" d="m48 88 16 12-16 12z" fill="#42dc42" stop-color="#000000"/>
  <path id="rect1049-4" d="m24 88-16 12 16 12z" fill="#dc4242" stop-color="#000000"/>
  <path id="rect1049-6" d="m112 112-12 16-12-16z" fill="#42dc42" stop-color="#000000"/>
  <path id="rect1049-4-2" d="m112 88-12-16-12 16z" fill="#dc4242" stop-color="#000000"/>
  <rect id="rect1027-1" x="28" y="68" width="16" height="64" fill="#828282" stop-color="#000000"/>
  <rect id="rect1027-9-5" transform="rotate(90)" x="92" y="-132" width="16" height="64" fill="#828282" stop-color="#000000"/>
  <path id="rect1049-1" d="m24 24-16 12 16 12z" fill="#42dc42" stop-color="#000000"/>
  <path id="rect1049-4-3" d="m48 24 16 12-16 12z" fill="#dc4242" stop-color="#000000"/>
  <path id="rect1049-6-2" d="m112 24-12-16-12 16z" fill="#42dc42" stop-color="#000000"/>
  <path id="rect1049-4-2-4" d="m112 48-12 16-12-16z" fill="#dc4242" stop-color="#000000"/>
  <rect id="rect1027-8" x="28" y="132" width="16" height="64" fill="#828282" stop-color="#000000"/>
  <rect id="rect1027-9-8" transform="rotate(90)" x="156" y="-132" width="16" height="64" fill="#828282" stop-color="#000000"/>
  <path id="rect1049-0" d="m48 216 16 12-16 12z" fill="#dc4242" stop-color="#000000" style="font-variation-settings:normal"/>
  <path id="rect1049-4-0" d="m24 216-16 12 16 12z" fill="#dc4242" stop-color="#000000"/>
  <path id="rect1049-6-5" d="m112 240-12 16-12-16z" fill="#42dc42" stop-color="#000000"/>
  <path id="rect1049-4-2-5" d="m112 216-12-16-12 16z" fill="#42dc42" stop-color="#000000" style="font-variation-settings:normal"/>
  <rect id="rect1027-1-8" x="28" y="196" width="16" height="64" fill="#828282" stop-color="#000000"/>
  <rect id="rect1027-9-5-1" transform="rotate(90)" x="220" y="-132" width="16" height="64" fill="#828282" stop-color="#000000"/>
  <path id="rect1049-1-2" d="m24 152-16 12 16 12z" fill="#42dc42" stop-color="#000000"/>
  <path id="rect1049-4-3-1" d="m48 152 16 12-16 12z" fill="#42dc42" stop-color="#000000" style="font-variation-settings:normal"/>
  <path id="rect1049-6-2-6" d="m112 152-12-16-12 16z" fill="#dc4242" stop-color="#000000" style="font-variation-settings:normal"/>
  <path id="rect1049-4-2-4-3" d="m112 176-12 16-12-16z" fill="#dc4242" stop-color="#000000"/>
  <rect id="rect1027-9-3" transform="rotate(90)" x="16" y="-184" width="40" height="40" fill="#828282" stop-color="#000000"/>
  <g fill="none" stroke="#646464" stroke-linejoin="round" stroke-width=".5">
    <rect id="rect976" x="4" y="4" width="64" height="64" stop-color="#000000"/>
    <rect id="rect976-9" x="68" y="4" width="64" height="64" stop-color="#000000"/>
    <rect id="rect976-7" x="4" y="68" width="64" height="64" stop-color="#000000"/>
    <rect id="rect976-78" x="68" y="68" width="64" height="64" stop-color="#000000"/>
    <rect id="rect976-7-7" x="4" y="132" width="64" height="64" stop-color="#000000"/>
    <rect id="rect976-78-1" x="68" y="132" width="64" height="64" stop-color="#000000"/>
    <rect id="rect976-7-7-2" x="4" y="196" width="64" height="64" stop-color="#000000"/>
    <rect id="rect976-78-1-6" x="68" y="196" width="64" height="64" stop-color="#000000"/>
    <rect id="rect976-7-7-2-3" x="132" y="4" width="64" height="64" stop-color="#000000"/>
  </g>
</svg>
