<?xml version="1.0" encoding="UTF-8" standalone="no"?>
<svg
   xmlns:dc="http://purl.org/dc/elements/1.1/"
   xmlns:cc="http://creativecommons.org/ns#"
   xmlns:rdf="http://www.w3.org/1999/02/22-rdf-syntax-ns#"
   xmlns:svg="http://www.w3.org/2000/svg"
   xmlns="http://www.w3.org/2000/svg"
   xmlns:sodipodi="http://sodipodi.sourceforge.net/DTD/sodipodi-0.dtd"
   xmlns:inkscape="http://www.inkscape.org/namespaces/inkscape"
   id="svg8"
   width="200"
   height="264"
   version="1.1"
   viewBox="0 0 200 264"
   sodipodi:docname="autotile_edge_rotation.svg"
   inkscape:version="1.0.2-2 (e86c870879, 2021-01-15)">
  <metadata
     id="metadata45">
    <rdf:RDF>
      <cc:Work
         rdf:about="">
        <dc:format>image/svg+xml</dc:format>
        <dc:type
           rdf:resource="http://purl.org/dc/dcmitype/StillImage" />
        <dc:title></dc:title>
      </cc:Work>
    </rdf:RDF>
  </metadata>
  <defs
     id="defs43" />
  <sodipodi:namedview
     pagecolor="#ffffff"
     bordercolor="#666666"
     borderopacity="1"
     objecttolerance="10"
     gridtolerance="10"
     guidetolerance="10"
     inkscape:pageopacity="0"
     inkscape:pageshadow="2"
     inkscape:window-width="1920"
     inkscape:window-height="1013"
     id="namedview41"
     showgrid="false"
     inkscape:snap-bbox="true"
     inkscape:snap-page="true"
     inkscape:zoom="1.990077"
     inkscape:cx="51.822665"
     inkscape:cy="105.76242"
     inkscape:window-x="-9"
     inkscape:window-y="-9"
     inkscape:window-maximized="1"
     inkscape:current-layer="svg8" />
  <rect
     style="fill:#e5e5e5;stroke-width:0;stroke-linejoin:round;stop-color:#000000;fill-opacity:1"
     id="rect870"
     width="200"
     height="264"
     x="0"
     y="0" />
  <g
     id="layer3">
    <path
       id="rect1337"
       d="m4 4h192v64l-64 2.1e-5v192h-128z"
       fill="#fff"
       stop-color="#000000"
       style="font-variation-settings:normal" />
  </g>
  <g
     id="layer2">
    <rect
       id="rect1027"
       x="28"
       y="4"
       width="16"
       height="64"
       fill="#828282"
       stop-color="#000000" />
    <rect
       id="rect1027-9"
       transform="rotate(90)"
       x="28"
       y="-132"
       width="16"
       height="64"
       fill="#828282"
       stop-color="#000000" />
    <path
       id="rect1049"
       d="m48 24 16 12-16 12z"
       fill="#42dc42"
       stop-color="#000000" />
    <path
       id="rect1049-4"
       d="m24 24-16 12 16 12z"
       fill="#dc4242"
       stop-color="#000000" />
    <path
       id="rect1049-6"
       d="m112 48-12 16-12-16z"
       fill="#42dc42"
       stop-color="#000000" />
    <path
       id="rect1049-4-2"
       d="m112 24-12-16-12 16z"
       fill="#dc4242"
       stop-color="#000000" />
    <rect
       id="rect1027-1"
       x="28"
       y="68"
       width="16"
       height="64"
       fill="#828282"
       stop-color="#000000" />
    <rect
       id="rect1027-9-5"
       transform="rotate(90)"
       x="92"
       y="-132"
       width="16"
       height="64"
       fill="#828282"
       stop-color="#000000" />
    <path
       id="rect1049-1"
       d="m24 88-16 12 16 12z"
       fill="#42dc42"
       stop-color="#000000" />
    <path
       id="rect1049-4-3"
       d="m48 88 16 12-16 12z"
       fill="#dc4242"
       stop-color="#000000" />
    <path
       id="rect1049-6-2"
       d="m112 88-12-16-12 16z"
       fill="#42dc42"
       stop-color="#000000" />
    <path
       id="rect1049-4-2-4"
       d="m112 112-12 16-12-16z"
       fill="#dc4242"
       stop-color="#000000" />
    <rect
       id="rect1027-8"
       x="28"
       y="132"
       width="16"
       height="64"
       fill="#828282"
       stop-color="#000000" />
    <rect
       id="rect1027-9-8"
       transform="rotate(90)"
       x="156"
       y="-132"
       width="16"
       height="64"
       fill="#828282"
       stop-color="#000000" />
    <path
       id="rect1049-0"
       d="m48 152 16 12-16 12z"
       fill="#dc4242"
       stop-color="#000000"
       style="font-variation-settings:normal" />
    <path
       id="rect1049-4-0"
       d="m24 152-16 12 16 12z"
       fill="#dc4242"
       stop-color="#000000" />
    <path
       id="rect1049-6-5"
       d="m112 176-12 16-12-16z"
       fill="#42dc42"
       stop-color="#000000" />
    <path
       id="rect1049-4-2-5"
       d="m112 152-12-16-12 16z"
       fill="#42dc42"
       stop-color="#000000"
       style="font-variation-settings:normal" />
    <rect
       id="rect1027-1-8"
       x="28"
       y="196"
       width="16"
       height="64"
       fill="#828282"
       stop-color="#000000" />
    <rect
       id="rect1027-9-5-1"
       transform="rotate(90)"
       x="220"
       y="-132"
       width="16"
       height="64"
       fill="#828282"
       stop-color="#000000" />
    <path
       id="rect1049-1-2"
       d="m24 216-16 12 16 12z"
       fill="#42dc42"
       stop-color="#000000" />
    <path
       id="rect1049-4-3-1"
       d="m48 216 16 12-16 12z"
       fill="#42dc42"
       stop-color="#000000"
       style="font-variation-settings:normal" />
    <path
       id="rect1049-6-2-6"
       d="m112 216-12-16-12 16z"
       fill="#dc4242"
       stop-color="#000000"
       style="font-variation-settings:normal" />
    <path
       id="rect1049-4-2-4-3"
       d="m112 240-12 16-12-16z"
       fill="#dc4242"
       stop-color="#000000" />
    <rect
       id="rect1027-9-3"
       transform="rotate(90)"
       x="16"
       y="-184"
       width="40"
       height="40"
       fill="#828282"
       stop-color="#000000" />
  </g>
  <g
     id="layer1"
     transform="translate(4,4)"
     fill="none"
     stroke="#646464"
     stroke-linejoin="round"
     stroke-width=".5">
    <rect
       id="rect976"
       y="4.7684e-7"
       width="64"
       height="64"
       stop-color="#000000" />
    <rect
       id="rect976-9"
       x="64"
       y="4.7684e-7"
       width="64"
       height="64"
       stop-color="#000000" />
    <rect
       id="rect976-7"
       y="64"
       width="64"
       height="64"
       stop-color="#000000" />
    <rect
       id="rect976-78"
       x="64"
       y="64"
       width="64"
       height="64"
       stop-color="#000000" />
    <rect
       id="rect976-7-7"
       y="128"
       width="64"
       height="64"
       stop-color="#000000" />
    <rect
       id="rect976-78-1"
       x="64"
       y="128"
       width="64"
       height="64"
       stop-color="#000000" />
    <rect
       id="rect976-7-7-2"
       x="-1.5e-6"
       y="192"
       width="64"
       height="64"
       stop-color="#000000" />
    <rect
       id="rect976-78-1-6"
       x="64"
       y="192"
       width="64"
       height="64"
       stop-color="#000000" />
    <rect
       id="rect976-7-7-2-3"
       x="128"
       y="-2.5147e-5"
       width="64"
       height="64"
       stop-color="#000000" />
  </g>
</svg>
